<svg width="334" height="25" viewBox="0 0 334 25" fill="none" xmlns="http://www.w3.org/2000/svg">
<path d="M13.3602 24H21.3255L17.1351 15.8269C18.9706 14.9265 21.2909 12.814 21.2909 8.83136C21.2909 4.50241 18.3818 0.900723 12.9793 0.900723H0.650452V24H7.64603V16.5888H10.1741L13.3602 24ZM14.1914 8.72746C14.1914 10.0088 13.0832 10.7707 11.9057 10.7707H7.64603V6.71883H11.9057C13.0832 6.71883 14.1914 7.48072 14.1914 8.72746Z" fill="white"/>
<path d="M39.5325 24H47.1168L38.5975 0.900723H29.801L21.2817 24H28.866L29.7664 21.0217H38.6321L39.5325 24ZM34.1992 7.06514L36.8312 15.2036H31.5672L34.1992 7.06514Z" fill="white"/>
<path d="M63.5308 24H70.2494V0.900723H63.2538V12.5369L55.2193 0.900723H48.0159V24H55.0115V11.6019L63.5308 24Z" fill="white"/>
<path d="M87.115 24H95.6343L86.5262 11.6365L95.2534 0.900723H86.6994L80.6388 9.55862V0.900723H73.6433V24H80.6388V17.5931L81.9202 15.8616L87.115 24Z" fill="white"/>
<path d="M125.445 24H132.44V0.900723H122.778L118.726 12.6755L114.674 0.900723H105.012V24H112.007V9.42009L117.168 24H120.284L125.445 9.42009V24Z" fill="white"/>
<path d="M142.012 24H149.008V14.8226L157.596 0.900723H149.735L145.51 8.69283L141.215 0.900723H133.354L142.012 14.8226V24Z" fill="white"/>
<path d="M166.979 24H181.49C186.131 24 188.312 20.9524 188.312 17.7317C188.312 14.7534 186.408 12.4677 183.914 12.0867C186.165 11.6019 187.862 9.66251 187.862 6.78809C187.862 4.08683 185.784 0.900723 181.005 0.900723H166.979V24ZM173.975 9.48935V6.5803H179.378C180.105 6.5803 180.763 7.20367 180.763 8.0002C180.763 8.83135 180.105 9.48935 179.378 9.48935H173.975ZM173.975 18.3204V15.1689H179.585C180.59 15.1689 181.213 15.9308 181.213 16.762C181.213 17.6278 180.59 18.3204 179.585 18.3204H173.975Z" fill="white"/>
<path d="M189.534 12.4677C189.534 19.5671 195.04 24.4156 202.174 24.4156C209.308 24.4156 214.815 19.5671 214.815 12.4677C214.815 5.3682 209.308 0.519775 202.174 0.519775C195.04 0.519775 189.534 5.3682 189.534 12.4677ZM207.715 12.4677C207.715 15.6884 205.534 18.2511 202.174 18.2511C198.815 18.2511 196.633 15.6884 196.633 12.4677C196.633 9.24693 198.815 6.6842 202.174 6.6842C205.534 6.6842 207.715 9.24693 207.715 12.4677Z" fill="white"/>
<path d="M215.702 12.4677C215.702 19.5671 221.209 24.4156 228.343 24.4156C235.477 24.4156 240.983 19.5671 240.983 12.4677C240.983 5.3682 235.477 0.519775 228.343 0.519775C221.209 0.519775 215.702 5.3682 215.702 12.4677ZM233.884 12.4677C233.884 15.6884 231.702 18.2511 228.343 18.2511C224.984 18.2511 222.802 15.6884 222.802 12.4677C222.802 9.24693 224.984 6.6842 228.343 6.6842C231.702 6.6842 233.884 9.24693 233.884 12.4677Z" fill="white"/>
<path d="M256.589 24H265.109L256 11.6365L264.728 0.900723H256.174L250.113 9.55862V0.900723H243.117V24H250.113V17.5931L251.394 15.8616L256.589 24Z" fill="white"/>
<path d="M266.005 24H281.763V17.9048H273.001V0.900723H266.005V24Z" fill="white"/>
<path d="M284.226 24H291.222V0.900723H284.226V24Z" fill="white"/>
<path d="M292.835 20.7446C295.293 22.961 298.653 24.4156 303.57 24.4156C309.769 24.4156 313.544 21.4719 313.544 16.381C313.544 11.0478 307.899 9.93957 304.09 9.28157C301.631 8.86599 300.696 8.5543 300.696 7.65388C300.696 7.06514 301.077 6.44178 302.809 6.44178C304.644 6.44178 307.241 7.20367 309.25 8.72746L312.99 3.77514C310.358 1.62799 306.964 0.554407 303.189 0.554407C296.852 0.554407 293.596 4.12146 293.596 8.03483C293.596 13.8183 299.415 14.7187 303.224 15.4114C305.51 15.8269 306.479 16.2771 306.479 17.1776C306.479 18.078 305.233 18.5282 303.917 18.5282C300.8 18.5282 298.202 17.2122 296.471 15.5499L292.835 20.7446Z" fill="white"/>
<path d="M320.446 24H327.441V6.99588H333.606V0.900723H314.247V6.99588H320.446V24Z" fill="white"/>
</svg>