<svg width="291" height="29" viewBox="0 0 291 29" fill="none" xmlns="http://www.w3.org/2000/svg">
<path d="M0.273285 28H8.35329V19.44H14.5133C20.7533 19.44 24.1133 15.44 24.1133 10.48C24.1133 5.48001 20.7533 1.32 14.5133 1.32H0.273285V28ZM15.9133 10.4C15.9133 11.8 14.8333 12.72 13.4733 12.72H8.35329V8.04H13.4733C14.8333 8.04 15.9133 8.96001 15.9133 10.4Z" fill="white"/>
<path d="M28.7577 28H46.9577V20.96H36.8377V1.32H28.7577V28Z" fill="white"/>
<path d="M70.403 28H79.163L69.323 1.32H59.163L49.323 28H58.083L59.123 24.56H69.363L70.403 28ZM64.243 8.44L67.283 17.84H61.203L64.243 8.44Z" fill="white"/>
<path d="M80.5614 24.24C83.4014 26.8 87.2814 28.48 92.9614 28.48C100.121 28.48 104.481 25.08 104.481 19.2C104.481 13.04 97.9614 11.76 93.5614 11C90.7214 10.52 89.6414 10.16 89.6414 9.12C89.6414 8.44001 90.0814 7.72001 92.0814 7.72001C94.2014 7.72001 97.2014 8.6 99.5214 10.36L103.841 4.64C100.801 2.16 96.8814 0.920004 92.5214 0.920004C85.2014 0.920004 81.4414 5.04001 81.4414 9.56001C81.4414 16.24 88.1614 17.28 92.5614 18.08C95.2014 18.56 96.3214 19.08 96.3214 20.12C96.3214 21.16 94.8814 21.68 93.3614 21.68C89.7614 21.68 86.7614 20.16 84.7614 18.24L80.5614 24.24Z" fill="white"/>
<path d="M114.853 28H122.933V8.36H130.053V1.32H107.693V8.36H114.853V28Z" fill="white"/>
<path d="M134.922 28H143.002V1.32H134.922V28Z" fill="white"/>
<path d="M162.345 28.48C169.545 28.48 173.105 24.24 174.665 20.68L167.705 17.48C167.025 19.56 164.945 21.36 162.345 21.36C158.665 21.36 156.065 18.4 156.065 14.68C156.065 10.96 158.665 8.00001 162.345 8.00001C164.945 8.00001 167.025 9.80001 167.705 11.88L174.665 8.64001C173.065 4.96 169.545 0.880005 162.345 0.880005C154.185 0.880005 147.865 6.44 147.865 14.68C147.865 22.88 154.185 28.48 162.345 28.48Z" fill="white"/>
<path d="M202.795 28H210.875V1.32H199.715L195.035 14.92L190.355 1.32H179.195V28H187.275V11.16L193.235 28H196.835L202.795 11.16V28Z" fill="white"/>
<path d="M217.211 28H225.291V1.32H217.211V28Z" fill="white"/>
<path d="M249.514 28H257.274V1.32H249.194V14.76L239.914 1.32H231.594V28H239.674V13.68L249.514 28Z" fill="white"/>
<path d="M263.594 28H275.554C283.914 28 290.154 23.16 290.154 14.64C290.154 6.12 283.914 1.32 275.514 1.32H263.594V28ZM271.674 20.96V8.36H275.554C279.874 8.36 281.954 11.04 281.954 14.64C281.954 18 279.554 20.96 275.514 20.96H271.674Z" fill="white"/>
</svg>
